<svg width="24" height="18" viewBox="0 0 24 18" fill="none" xmlns="http://www.w3.org/2000/svg">
<path d="M21.7006 1.70079H17.3892V0H6.61078V1.70079H2.2994C1.68956 1.70079 1.1047 1.93971 0.673479 2.36499C0.242258 2.79027 0 3.36707 0 3.9685V15.7323C0 16.3337 0.242258 16.9105 0.673479 17.3358C1.1047 17.7611 1.68956 18 2.2994 18H21.7006C22.3104 18 22.8953 17.7611 23.3265 17.3358C23.7577 16.9105 24 16.3337 24 15.7323V3.9685C24 3.36707 23.7577 2.79027 23.3265 2.36499C22.8953 1.93971 22.3104 1.70079 21.7006 1.70079ZM11.9994 16.7244C8.15713 16.7244 5.03224 13.6403 5.03224 9.85096C5.03224 6.06161 8.15713 2.97751 11.9994 2.97751C15.8417 2.97751 18.9689 6.06161 18.9689 9.85096C18.9689 13.6403 15.8417 16.7221 11.9994 16.7221V16.7244ZM11.9994 5.24409C11.3859 5.24417 10.7784 5.36342 10.2116 5.59503C9.64486 5.82665 9.12989 6.16609 8.69613 6.59398C8.26236 7.02187 7.9183 7.52983 7.68359 8.08886C7.44888 8.64789 7.32812 9.24704 7.32819 9.85209C7.32827 10.4572 7.44918 11.0563 7.68403 11.6152C7.91888 12.1742 8.26307 12.6821 8.69694 13.1099C9.13081 13.5377 9.64587 13.877 10.2127 14.1085C10.7795 14.3399 11.3871 14.459 12.0006 14.459C13.2398 14.4588 14.4281 13.9732 15.3043 13.1089C16.1804 12.2446 16.6725 11.0725 16.6724 9.85039C16.6722 8.62828 16.1798 7.45627 15.3035 6.59221C14.4271 5.72815 13.2386 5.24281 11.9994 5.24296V5.24409Z" fill="#111111"/>
</svg>
