<svg width="24" height="24" viewBox="0 0 24 24" fill="none" xmlns="http://www.w3.org/2000/svg">
<path d="M19.4762 2.59154L13.0442 7.36785L23.6454 14.7646C24.2001 12.5529 24.1024 10.2296 23.3637 8.07156C22.624 5.91355 21.2744 4.01109 19.4762 2.59154ZM5.34865 1.99331L7.97369 9.61545L18.4272 1.85014V1.8512C16.4674 0.617903 14.1878 -0.0245459 11.8667 0.000717412C9.54457 0.0259942 7.281 0.71901 5.34876 1.99442L5.34865 1.99331ZM0.474792 15.2101L8.56153 15.09L4.31261 2.76218C2.52291 4.24298 1.20612 6.20926 0.523764 8.41987C-0.157472 10.6295 -0.17456 12.9897 0.474792 15.2101ZM11.6457 23.7767L13.9966 16.2273L0.899928 16.418C1.78309 18.5412 3.26778 20.3665 5.17442 21.6723C7.08103 22.9783 9.32904 23.7093 11.6457 23.7767ZM16.7672 11.4564L12.9413 23.7462C15.2305 23.5672 17.4199 22.7414 19.2501 21.367C21.0802 19.9926 22.4746 18.1262 23.2675 15.9905L16.7672 11.4564Z" fill="#111111"/>
</svg>
