<svg width="24" height="21" viewBox="0 0 24 21" fill="none" xmlns="http://www.w3.org/2000/svg">
<path d="M1.15399 4.97119H22.846C23.4833 4.97119 24 5.60376 24 6.11663V19.3108C24 19.9434 23.4833 20.4562 22.846 20.4562H1.15399C0.516699 20.4562 0 19.8237 0 19.3108V6.11663C0 5.48406 0.516699 4.97119 1.15399 4.97119Z" fill="#757575"/>
<path d="M1.88978 2.48535H22.1105C22.2641 2.48535 22.389 2.63779 22.389 2.76174V3.28887C22.389 3.44132 22.2641 3.56526 22.1105 3.56526H1.88978C1.7362 3.56526 1.61133 3.41282 1.61133 3.28887V2.76174C1.61133 2.6093 1.7362 2.48535 1.88978 2.48535Z" fill="#757575"/>
<path d="M3.48548 0H20.5157C20.6693 0 20.7942 0.152442 20.7942 0.276389V0.803521C20.7942 0.955964 20.6693 1.07991 20.5157 1.07991H3.48548C3.3319 1.07991 3.20703 0.927468 3.20703 0.803521V0.276389C3.20703 0.123946 3.3319 0 3.48548 0Z" fill="#757575"/>
</svg>
