<svg xmlns="http://www.w3.org/2000/svg" width="32" height="46" fill="none" viewBox="0 0 32 46">
  <path fill="#873A7C" d="M9.044 32 0 45.913V32h9.044Z"/>
  <path fill="#5B3A6A" d="M9.044 32 0 45.913h9.044V32Z"/>
  <path fill="#E5015D" d="M9.044 22.956 0 32v-9.044h9.044Z"/>
  <path fill="#BA016A" d="M9.044 22.956 0 32h9.044v-9.044Z"/>
  <path fill="#F8B217" d="M9.044 0 0 9.044h9.044V0Z"/>
  <path fill="#2B3867" d="M22.956 32 32 22.956h-9.044V32Z"/>
  <path fill="#1EAB4C" d="M22.956 0 32 9.044h-9.044V0Z"/>
  <path fill="#F58E20" d="M9.044 9.043 0 22.956V9.043h9.044Z"/>
  <path fill="#FA5D2C" d="M9.044 9.043 0 22.956h9.044V9.043Z"/>
  <path fill="#0A8DCD" d="m31.999 9.043-9.044 13.913V9.043H32Z"/>
  <path fill="#1E68A6" d="m31.999 9.043-9.044 13.913H32V9.043Z"/>
  <path fill="#109045" d="m9.045 0 13.913 9.043H9.045V0Z"/>
  <path fill="#79BB43" d="m9.045 0 13.913 9.043V0H9.045Z"/>
  <path fill="#2B3867" d="M10.435 22.956 22.956 32H10.435v-9.044Z"/>
  <path fill="#375892" d="M10.435 22.956 22.956 32v-9.044H10.435Z"/>
</svg>
