<svg width="23" height="34" viewBox="0 0 23 34" fill="none" xmlns="http://www.w3.org/2000/svg">
<path d="M6.50002 23.5L0 33.5V23.5H6.50002Z" fill="#873A7C"/>
<path d="M6.50002 23.5L0 33.5H6.50002V23.5Z" fill="#5B3A6A"/>
<path d="M6.50002 17L0 23.5V17H6.50002Z" fill="#E5015D"/>
<path d="M6.50002 17L0 23.5H6.50002V17Z" fill="#BA016A"/>
<path d="M6.50002 0.5L0 7.00002H6.50002V0.5Z" fill="#F8B217"/>
<path d="M16.5 23.5L23 17H16.5V23.5Z" fill="#2B3867"/>
<path d="M16.5 0.500488L23 7.00051H16.5V0.500488Z" fill="#1EAB4C"/>
<path d="M6.50002 7L0 17V7H6.50002Z" fill="#F58E20"/>
<path d="M6.50002 7L0 17H6.50002V7Z" fill="#FA5D2C"/>
<path d="M22.999 7L16.499 17V7H22.999Z" fill="#0A8DCD"/>
<path d="M22.999 7L16.499 17H22.999V7Z" fill="#1E68A6"/>
<path d="M6.50098 0.499982L16.501 7L6.50098 7V0.499982Z" fill="#109045"/>
<path d="M6.50098 0.499982L16.501 7V0.499982L6.50098 0.499982Z" fill="#79BB43"/>
<path d="M7.5 17L16.5 23.5H7.5V17Z" fill="#2B3867"/>
<path d="M7.5 17L16.5 23.5V17H7.5Z" fill="#375892"/>
</svg>
